<svg width="192" height="192" viewBox="0 0 192 192" fill="none" xmlns="http://www.w3.org/2000/svg">
<rect width="192" height="192" rx="20" fill="#FEBD1E"/>
<path d="M130.311 75.5164V161.182C130.3 164.965 128.781 168.59 126.085 171.265C123.389 173.94 119.736 175.448 115.924 175.459H52.6173C48.8049 175.448 45.1519 173.94 42.4562 171.265C39.7604 168.59 38.2409 164.965 38.2295 161.182V84.0829" fill="#FEBD1E"/>
<path d="M130.311 75.5164V161.182C130.3 164.965 128.781 168.59 126.085 171.265C123.389 173.94 119.736 175.448 115.924 175.459H52.6173C48.8049 175.448 45.1519 173.94 42.4562 171.265C39.7604 168.59 38.2409 164.965 38.2295 161.182V84.0829" stroke="#111111" stroke-width="10" stroke-linecap="round" stroke-linejoin="round"/>
<path d="M135.311 84.5H149.348C154.556 84.5151 159.546 86.6248 163.228 90.3684C166.91 94.112 168.985 99.185 169 104.479V133.021C168.985 138.315 166.91 143.388 163.228 147.132C159.546 150.875 154.556 152.985 149.348 153H135.311" fill="#FEBD1E"/>
<path d="M135.311 84.5H149.348C154.556 84.5151 159.546 86.6248 163.228 90.3684C166.91 94.112 168.985 99.185 169 104.479V133.021C168.985 138.315 166.91 143.388 163.228 147.132C159.546 150.875 154.556 152.985 149.348 153H135.311" stroke="#111111" stroke-width="10" stroke-miterlimit="10" stroke-linecap="round"/>
<path d="M84.3296 95.6704V153ZM107.261 95.6704V153ZM61.3978 95.6704V153ZM118.727 44.0738C123.289 44.0738 127.663 45.8858 130.889 49.1112C134.114 52.3366 135.926 56.7112 135.926 61.2726C135.926 65.8341 134.114 70.2087 130.889 73.4341C127.663 76.6595 123.289 78.4715 118.727 78.4715C113.98 78.4715 108.225 75.8523 105.112 72.7386H61.3978C58.5313 80.6214 51.7234 84.2045 44.1989 84.2045C39.6375 84.2045 35.2629 82.3925 32.0374 79.167C28.812 75.9416 27 71.567 27 67.0056C27 62.4442 28.812 58.0696 32.0374 54.8442C35.2629 51.6187 39.6375 49.8067 44.1989 49.8067C47.5527 49.9477 50.7917 51.0689 53.5149 53.0315" fill="#FEBD1E"/>
<path d="M84.3296 95.6704V153M107.261 95.6704V153M61.3978 95.6704V153M118.727 44.0738C123.289 44.0738 127.663 45.8858 130.889 49.1112C134.114 52.3366 135.926 56.7112 135.926 61.2726C135.926 65.8341 134.114 70.2087 130.889 73.4341C127.663 76.6595 123.289 78.4715 118.727 78.4715C113.98 78.4715 108.225 75.8523 105.112 72.7386H61.3978C58.5313 80.6214 51.7234 84.2045 44.1989 84.2045C39.6375 84.2045 35.2629 82.3925 32.0374 79.167C28.812 75.9416 27 71.567 27 67.0056C27 62.4442 28.812 58.0696 32.0374 54.8442C35.2629 51.6187 39.6375 49.8067 44.1989 49.8067C47.5527 49.9477 50.7917 51.0689 53.5149 53.0315" stroke="#111111" stroke-width="10" stroke-linecap="round" stroke-linejoin="round"/>
<path d="M36.8375 51.9293C35.4395 50.539 34.3433 48.8733 33.6181 47.0371C32.8929 45.2008 32.5543 43.2337 32.6236 41.2597C32.6929 39.2856 33.1686 37.3474 34.0208 35.5669C34.873 33.7864 36.0833 32.2023 37.5753 30.9143C39.0674 29.6263 40.8089 28.6622 42.6904 28.0829C44.5718 27.5035 46.5524 27.3214 48.5074 27.5479C50.4624 27.7745 52.3495 28.4048 54.0499 29.3992C55.7503 30.3937 57.2272 31.7307 58.3875 33.326C58.3875 33.326 61.1249 37.1075 61.1249 38.8963M56.0743 27.7021C62.2727 20.6115 70.9518 16 81.0853 16C99.7553 16 114.59 31.3262 114.59 50.0618C114.591 52.1973 114.392 54.3282 113.995 56.4262" fill="#FEBD1E"/>
<path d="M36.8375 51.9293C35.4395 50.539 34.3433 48.8733 33.6181 47.0371C32.8929 45.2008 32.5543 43.2337 32.6236 41.2597C32.6929 39.2856 33.1686 37.3474 34.0208 35.5669C34.873 33.7864 36.0833 32.2023 37.5753 30.9143C39.0674 29.6263 40.8089 28.6622 42.6904 28.0829C44.5718 27.5035 46.5524 27.3214 48.5074 27.5479C50.4624 27.7745 52.3495 28.4048 54.0499 29.3992C55.7503 30.3937 57.2272 31.7307 58.3875 33.326C58.3875 33.326 61.1249 37.1075 61.1249 38.8963M56.0743 27.7021C62.2727 20.6115 70.9518 16 81.0853 16C99.7553 16 114.59 31.3262 114.59 50.0618C114.591 52.1973 114.392 54.3282 113.995 56.4262" stroke="#111111" stroke-width="10" stroke-miterlimit="10" stroke-linecap="round"/>
</svg>
