<svg width="512" height="512" viewBox="0 0 512 512" fill="none" xmlns="http://www.w3.org/2000/svg">
<rect width="512" height="512" rx="100" fill="#FFBB00"/>
<path d="M342.75 204.387V419.813C342.722 429.327 338.942 438.443 332.235 445.17C325.529 451.897 316.441 455.689 306.957 455.718H149.47C139.986 455.689 130.898 451.897 124.192 445.17C117.486 438.443 113.706 429.327 113.677 419.813V225.93" stroke="#181820" stroke-width="20" stroke-linecap="round" stroke-linejoin="round"/>
<path d="M342.75 227.573H378.688C392.02 227.611 404.795 232.952 414.222 242.43C423.649 251.908 428.962 264.752 429 278.156V350.417C428.962 363.821 423.649 376.665 414.222 386.142C404.795 395.62 392.02 400.962 378.688 401H342.75" stroke="#181820" stroke-width="20" stroke-miterlimit="10" stroke-linecap="round"/>
<path d="M227.506 257.006V401M284.908 257.006V401M170.104 257.006V401M313.609 127.411C325.028 127.411 335.978 131.963 344.052 140.064C352.125 148.165 356.661 159.153 356.661 170.61C356.661 182.066 352.125 193.054 344.052 201.155C335.978 209.257 325.028 213.808 313.609 213.808C301.725 213.808 287.321 207.229 279.527 199.408H170.104C162.928 219.208 145.887 228.207 127.052 228.207C115.634 228.207 104.683 223.656 96.6096 215.555C88.5358 207.453 84 196.466 84 185.009C84 173.552 88.5358 162.564 96.6096 154.463C104.683 146.362 115.634 141.811 127.052 141.811C135.447 142.165 143.555 144.981 150.371 149.91" stroke="#181820" stroke-width="20" stroke-linecap="round" stroke-linejoin="round"/>
<path d="M109.444 146.668C105.933 143.16 103.18 138.956 101.359 134.322C99.5373 129.689 98.6869 124.725 98.8609 119.743C99.035 114.762 100.23 109.87 102.37 105.377C104.511 100.884 107.55 96.8867 111.298 93.6364C115.045 90.386 119.419 87.9533 124.144 86.4913C128.87 85.0292 133.844 84.5696 138.754 85.1413C143.664 85.713 148.404 87.3037 152.675 89.8131C156.945 92.3226 160.655 95.6965 163.569 99.7225C163.569 99.7225 170.444 109.265 170.444 113.779M157.759 85.5305C173.327 67.6371 195.125 56 220.576 56C267.467 56 304.726 94.6759 304.726 141.955C304.729 147.344 304.228 152.722 303.231 158.016" stroke="#181820" stroke-width="20" stroke-miterlimit="10" stroke-linecap="round"/>
</svg>
