<svg width="512" height="512" viewBox="0 0 512 512" fill="none" xmlns="http://www.w3.org/2000/svg">
<rect width="512" height="512" rx="50" fill="#181820"/>
<path d="M349 200V432.286C348.969 442.544 344.894 452.373 337.662 459.627C330.431 466.881 320.633 470.969 310.406 471H140.594C130.367 470.969 120.569 466.881 113.338 459.627C106.106 452.373 102.031 442.544 102 432.286V223.229" stroke="white" stroke-width="20" stroke-linecap="round" stroke-linejoin="round"/>
<path d="M349 225H387.75C402.125 225.041 415.9 230.801 426.065 241.02C436.23 251.24 441.959 265.089 442 279.542V357.458C441.959 371.911 436.23 385.76 426.065 395.98C415.9 406.199 402.125 411.959 387.75 412H349" stroke="white" stroke-width="20" stroke-miterlimit="10" stroke-linecap="round"/>
<path d="M224.737 256.737V412M286.632 256.737V412M162.842 256.737V412M317.579 117C329.891 117 341.698 121.907 350.404 130.643C359.109 139.378 364 151.225 364 163.579C364 175.932 359.109 187.78 350.404 196.515C341.698 205.25 329.891 210.158 317.579 210.158C304.765 210.158 289.233 203.064 280.829 194.632H162.842C155.105 215.98 136.73 225.684 116.421 225.684C104.109 225.684 92.302 220.777 83.5964 212.042C74.8908 203.306 70 191.459 70 179.105C70 166.752 74.8908 154.904 83.5964 146.169C92.302 137.434 104.109 132.526 116.421 132.526C125.473 132.908 134.215 135.944 141.566 141.26" stroke="white" stroke-width="20" stroke-linecap="round" stroke-linejoin="round"/>
<path d="M97.4357 137.764C93.6497 133.981 90.6813 129.449 88.7173 124.452C86.7533 119.456 85.8363 114.103 86.024 108.732C86.2116 103.36 87.5 98.0863 89.8079 93.2416C92.1157 88.3969 95.3932 84.0865 99.4338 80.5818C103.474 77.0771 108.191 74.454 113.286 72.8775C118.381 71.3011 123.745 70.8055 129.039 71.4219C134.334 72.0384 139.444 73.7535 144.049 76.4594C148.654 79.1652 152.654 82.8032 155.796 87.1442C155.796 87.1442 163.209 97.4336 163.209 102.301M149.531 71.8416C166.317 52.5478 189.822 40 217.264 40C267.825 40 308 81.7027 308 132.682C308.003 138.493 307.464 144.291 306.388 150" stroke="white" stroke-width="20" stroke-miterlimit="10" stroke-linecap="round"/>
</svg>
