<svg width="112" height="80" viewBox="0 0 112 80" fill="none" xmlns="http://www.w3.org/2000/svg">
<path d="M13.4517 9.24C17.1717 9.24 20.0037 10.272 21.9477 12.336C23.8917 14.4 24.8637 17.328 24.8637 21.12C24.8637 24.888 23.8917 27.816 21.9477 29.904C20.0037 31.968 17.1717 33 13.4517 33H2.54366V9.24H13.4517ZM12.5517 27.636C14.3277 27.636 15.5637 27.108 16.2597 26.052C16.9557 24.972 17.3037 23.328 17.3037 21.12C17.3037 18.912 16.9557 17.28 16.2597 16.224C15.5637 15.144 14.3277 14.604 12.5517 14.604H9.88766V27.636H12.5517ZM37.5351 21.66C37.5351 20.988 37.3551 20.46 36.9951 20.076C36.6591 19.668 36.1551 19.464 35.4831 19.464C34.8591 19.464 34.3191 19.632 33.8631 19.968C33.4311 20.304 33.1551 20.94 33.0351 21.876L26.8791 20.76C27.1191 18.888 27.9951 17.4 29.5071 16.296C31.0191 15.192 33.1791 14.64 35.9871 14.64C37.9071 14.64 39.5151 14.916 40.8111 15.468C42.1311 15.996 43.1151 16.776 43.7631 17.808C44.4351 18.84 44.7711 20.076 44.7711 21.516V27.564C44.7711 28.524 45.2031 29.004 46.0671 29.004C46.4271 29.004 46.7031 28.956 46.8951 28.86L46.5351 32.784C45.7431 33.168 44.7591 33.36 43.5831 33.36C42.5511 33.36 41.6391 33.204 40.8471 32.892C40.0551 32.556 39.4311 32.076 38.9751 31.452C38.5191 30.828 38.2911 30.012 38.2911 29.004V28.716L39.0111 28.608C39.0111 29.568 38.7111 30.408 38.1111 31.128C37.5351 31.848 36.7671 32.4 35.8071 32.784C34.8711 33.168 33.8271 33.36 32.6751 33.36C31.4271 33.36 30.3591 33.168 29.4711 32.784C28.5831 32.4 27.8991 31.848 27.4191 31.128C26.9631 30.408 26.7351 29.532 26.7351 28.5C26.7351 27.18 27.1311 26.1 27.9231 25.26C28.7391 24.42 29.9631 23.844 31.5951 23.532L38.1111 22.164L38.0751 25.224L35.4111 25.836C34.8111 25.956 34.3671 26.16 34.0791 26.448C33.8151 26.712 33.6831 27.084 33.6831 27.564C33.6831 28.02 33.8391 28.38 34.1511 28.644C34.4631 28.884 34.8471 29.004 35.3031 29.004C35.6151 29.004 35.9031 28.956 36.1671 28.86C36.4311 28.764 36.6591 28.62 36.8511 28.428C37.0671 28.236 37.2351 27.996 37.3551 27.708C37.4751 27.42 37.5351 27.072 37.5351 26.664V21.66ZM55.8945 7.584V26.304C55.8945 27.072 56.0145 27.624 56.2545 27.96C56.4945 28.296 56.9145 28.464 57.5145 28.464C57.8025 28.464 58.0545 28.452 58.2705 28.428C58.5105 28.38 58.7625 28.308 59.0265 28.212L58.6305 32.316C58.1985 32.628 57.5865 32.88 56.7945 33.072C56.0265 33.264 55.2585 33.36 54.4905 33.36C52.4025 33.36 50.9025 32.904 49.9905 31.992C49.0785 31.056 48.6225 29.508 48.6225 27.348V7.584H55.8945ZM67.918 7.584V26.304C67.918 27.072 68.038 27.624 68.278 27.96C68.518 28.296 68.938 28.464 69.538 28.464C69.826 28.464 70.078 28.452 70.294 28.428C70.534 28.38 70.786 28.308 71.05 28.212L70.654 32.316C70.222 32.628 69.61 32.88 68.818 33.072C68.05 33.264 67.282 33.36 66.514 33.36C64.426 33.36 62.926 32.904 62.014 31.992C61.102 31.056 60.646 29.508 60.646 27.348V7.584H67.918ZM82.9921 21.66C82.9921 20.988 82.8121 20.46 82.4521 20.076C82.1161 19.668 81.6121 19.464 80.9401 19.464C80.3161 19.464 79.7761 19.632 79.3201 19.968C78.8881 20.304 78.6121 20.94 78.4921 21.876L72.3361 20.76C72.5761 18.888 73.4521 17.4 74.9641 16.296C76.4761 15.192 78.6361 14.64 81.4441 14.64C83.3641 14.64 84.9721 14.916 86.2681 15.468C87.5881 15.996 88.5721 16.776 89.2201 17.808C89.8921 18.84 90.2281 20.076 90.2281 21.516V27.564C90.2281 28.524 90.6601 29.004 91.5241 29.004C91.8841 29.004 92.1601 28.956 92.3521 28.86L91.9921 32.784C91.2001 33.168 90.2161 33.36 89.0401 33.36C88.0081 33.36 87.0961 33.204 86.3041 32.892C85.5121 32.556 84.8881 32.076 84.4321 31.452C83.9761 30.828 83.7481 30.012 83.7481 29.004V28.716L84.4681 28.608C84.4681 29.568 84.1681 30.408 83.5681 31.128C82.9921 31.848 82.2241 32.4 81.2641 32.784C80.3281 33.168 79.2841 33.36 78.1321 33.36C76.8841 33.36 75.8161 33.168 74.9281 32.784C74.0401 32.4 73.3561 31.848 72.8761 31.128C72.4201 30.408 72.1921 29.532 72.1921 28.5C72.1921 27.18 72.5881 26.1 73.3801 25.26C74.1961 24.42 75.4201 23.844 77.0521 23.532L83.5681 22.164L83.5321 25.224L80.8681 25.836C80.2681 25.956 79.8241 26.16 79.5361 26.448C79.2721 26.712 79.1401 27.084 79.1401 27.564C79.1401 28.02 79.2961 28.38 79.6081 28.644C79.9201 28.884 80.3041 29.004 80.7601 29.004C81.0721 29.004 81.3601 28.956 81.6241 28.86C81.8881 28.764 82.1161 28.62 82.3081 28.428C82.5241 28.236 82.6921 27.996 82.8121 27.708C82.9321 27.42 82.9921 27.072 82.9921 26.664V21.66ZM102.072 33.36C100.296 33.36 98.6156 33.096 97.0316 32.568C95.4476 32.04 94.0916 31.26 92.9636 30.228L95.8796 26.376C96.5276 27.024 97.3556 27.588 98.3636 28.068C99.3956 28.548 100.476 28.788 101.604 28.788C102.18 28.788 102.66 28.716 103.044 28.572C103.452 28.428 103.656 28.176 103.656 27.816C103.656 27.576 103.548 27.384 103.332 27.24C103.14 27.072 102.72 26.928 102.072 26.808L100.2 26.448C97.7516 25.968 96.0116 25.272 94.9796 24.36C93.9716 23.424 93.4676 22.2 93.4676 20.688C93.4676 19.704 93.7676 18.756 94.3676 17.844C94.9916 16.908 95.9636 16.14 97.2836 15.54C98.6276 14.94 100.356 14.64 102.468 14.64C104.316 14.64 105.96 14.892 107.4 15.396C108.864 15.876 110.028 16.572 110.892 17.484L108.048 21.228C107.4 20.604 106.584 20.112 105.6 19.752C104.616 19.392 103.68 19.212 102.792 19.212C102.336 19.212 101.952 19.248 101.64 19.32C101.328 19.392 101.088 19.5 100.92 19.644C100.776 19.764 100.704 19.932 100.704 20.148C100.704 20.388 100.836 20.604 101.1 20.796C101.388 20.964 101.904 21.12 102.648 21.264L105.528 21.768C107.424 22.104 108.804 22.728 109.668 23.64C110.532 24.552 110.964 25.668 110.964 26.988C110.964 28.164 110.652 29.232 110.028 30.192C109.404 31.152 108.432 31.92 107.112 32.496C105.816 33.072 104.136 33.36 102.072 33.36Z" fill="white"/>
<path d="M2.80004 69V40.488H17.9632C21.5344 40.5168 24.1696 41.1792 25.8688 42.4752C27.5968 43.7424 28.4608 45.6288 28.4608 48.1344C28.4608 49.776 27.9568 51.1872 26.9488 52.368C25.9696 53.5488 24.4288 54.2976 22.3264 54.6144V54.6576C24.6592 54.9456 26.3872 55.6944 27.5104 56.904C28.6336 58.1136 29.1952 59.6112 29.1952 61.3968C29.1952 63.8736 28.3312 65.76 26.6032 67.056C24.904 68.352 22.3264 69 18.8704 69H2.80004ZM11.2672 63.0384H16.84C17.9632 63.0384 18.7984 62.8224 19.3456 62.3904C19.8928 61.9296 20.1664 61.2816 20.1664 60.4464C20.1664 59.6112 19.8928 58.9776 19.3456 58.5456C18.7984 58.1136 17.9632 57.8976 16.84 57.8976H11.2672V63.0384ZM11.2672 51.8064H16.192C18.352 51.8064 19.432 50.9568 19.432 49.2576C19.432 47.5584 18.352 46.7088 16.192 46.7088H11.2672V51.8064ZM32.277 69V47.4H40.0962L40.3554 52.4544C40.845 50.7552 41.6082 49.416 42.645 48.4368C43.7106 47.4576 45.093 46.968 46.7922 46.968C47.397 46.968 47.8866 47.0256 48.261 47.1408C48.6354 47.2272 48.909 47.3424 49.0818 47.4864L48.3042 54.5712C48.0162 54.456 47.6418 54.3552 47.181 54.2688C46.7202 54.1824 46.1874 54.1392 45.5826 54.1392C44.7186 54.1392 43.941 54.2976 43.2498 54.6144C42.5586 54.9312 42.0114 55.4064 41.6082 56.04C41.205 56.6448 41.0034 57.4224 41.0034 58.3728V69H32.277ZM62.0674 69.432C59.5906 69.432 57.445 69 55.6306 68.136C53.845 67.2432 52.4626 65.9616 51.4834 64.2912C50.533 62.6208 50.0578 60.5904 50.0578 58.2C50.0578 55.8096 50.5474 53.7792 51.5266 52.1088C52.5058 50.4384 53.8738 49.1712 55.6306 48.3072C57.3874 47.4144 59.4178 46.968 61.7218 46.968C64.0834 46.968 66.085 47.4144 67.7266 48.3072C69.397 49.1712 70.6642 50.3808 71.5282 51.936C72.421 53.4912 72.8674 55.3056 72.8674 57.3792C72.8674 57.8688 72.8386 58.3584 72.781 58.848C72.7522 59.3376 72.709 59.7552 72.6514 60.1008H55.6738V56.2992H68.8498L64.7026 57.8976C64.7026 56.256 64.4722 55.0176 64.0114 54.1824C63.5794 53.3184 62.8162 52.8864 61.7218 52.8864C60.973 52.8864 60.3394 53.0592 59.821 53.4048C59.3314 53.7504 58.957 54.3264 58.6978 55.1328C58.4674 55.9392 58.3522 57.0048 58.3522 58.3296C58.3522 59.6544 58.4962 60.7056 58.7842 61.4832C59.101 62.232 59.533 62.7504 60.0802 63.0384C60.6274 63.3264 61.3186 63.4704 62.1538 63.4704C63.0754 63.4704 63.7954 63.2832 64.3138 62.9088C64.8322 62.5344 65.2066 62.016 65.437 61.3536L72.4354 63.4272C72.0898 64.752 71.3842 65.8608 70.3186 66.7536C69.2818 67.6464 68.0434 68.3232 66.6034 68.784C65.1634 69.216 63.6514 69.432 62.0674 69.432ZM80.1355 45.4992C78.4075 45.4992 77.1547 45.1968 76.3771 44.592C75.6283 43.9872 75.2539 43.008 75.2539 41.6544C75.2539 40.272 75.6283 39.2784 76.3771 38.6736C77.1547 38.0688 78.4075 37.7664 80.1355 37.7664C81.8635 37.7664 83.1019 38.0688 83.8507 38.6736C84.6283 39.2784 85.0171 40.272 85.0171 41.6544C85.0171 43.008 84.6283 43.9872 83.8507 44.592C83.1019 45.1968 81.8635 45.4992 80.1355 45.4992ZM84.4987 47.4V69.864C84.4987 71.8512 84.1675 73.464 83.5051 74.7024C82.8427 75.9408 81.8491 76.848 80.5243 77.424C79.1995 78 77.5291 78.288 75.5131 78.288C74.2459 78.288 73.1083 78.1728 72.1003 77.9424C71.0923 77.712 70.1851 77.3808 69.3787 76.9488L70.5019 71.6352C70.7899 71.8368 71.1499 71.9952 71.5819 72.1104C71.9851 72.2256 72.4459 72.2832 72.9643 72.2832C73.8283 72.2832 74.5051 72.0384 74.9947 71.5488C75.5131 71.088 75.7723 70.2672 75.7723 69.0864V47.4H84.4987ZM100.604 55.392C100.604 54.5856 100.388 53.952 99.9558 53.4912C99.5526 53.0016 98.9478 52.7568 98.1414 52.7568C97.3926 52.7568 96.7446 52.9584 96.1974 53.3616C95.679 53.7648 95.3478 54.528 95.2038 55.6512L87.8166 54.312C88.1046 52.0656 89.1558 50.28 90.9702 48.9552C92.7846 47.6304 95.3766 46.968 98.7462 46.968C101.05 46.968 102.98 47.2992 104.535 47.9616C106.119 48.5952 107.3 49.5312 108.077 50.7696C108.884 52.008 109.287 53.4912 109.287 55.2192V62.4768C109.287 63.6288 109.805 64.2048 110.842 64.2048C111.274 64.2048 111.605 64.1472 111.836 64.032L111.404 68.7408C110.453 69.2016 109.273 69.432 107.861 69.432C106.623 69.432 105.529 69.2448 104.578 68.8704C103.628 68.4672 102.879 67.8912 102.332 67.1424C101.785 66.3936 101.511 65.4144 101.511 64.2048V63.8592L102.375 63.7296C102.375 64.8816 102.015 65.8896 101.295 66.7536C100.604 67.6176 99.6822 68.28 98.5302 68.7408C97.407 69.2016 96.1542 69.432 94.7718 69.432C93.2742 69.432 91.9926 69.2016 90.927 68.7408C89.8614 68.28 89.0406 67.6176 88.4646 66.7536C87.9174 65.8896 87.6438 64.8384 87.6438 63.6C87.6438 62.016 88.119 60.72 89.0694 59.712C90.0486 58.704 91.5174 58.0128 93.4758 57.6384L101.295 55.9968L101.252 59.6688L98.055 60.4032C97.335 60.5472 96.8022 60.792 96.4566 61.1376C96.1398 61.4544 95.9814 61.9008 95.9814 62.4768C95.9814 63.024 96.1686 63.456 96.543 63.7728C96.9174 64.0608 97.3782 64.2048 97.9254 64.2048C98.2998 64.2048 98.6454 64.1472 98.9622 64.032C99.279 63.9168 99.5526 63.744 99.783 63.5136C100.042 63.2832 100.244 62.9952 100.388 62.6496C100.532 62.304 100.604 61.8864 100.604 61.3968V55.392Z" fill="#FFBB00"/>
</svg>
