<svg xmlns="http://www.w3.org/2000/svg" fill="none" viewBox="4.51 4.42 193.43 31.89">
<path d="M14.8155 6.56C18.3288 6.56 21.0035 7.53467 22.8395 9.484C24.6755 11.4333 25.5935 14.1987 25.5935 17.78C25.5935 21.3387 24.6755 24.104 22.8395 26.076C21.0035 28.0253 18.3288 29 14.8155 29H4.51345V6.56H14.8155ZM13.9655 23.934C15.6428 23.934 16.8101 23.4353 17.4675 22.438C18.1248 21.418 18.4535 19.8653 18.4535 17.78C18.4535 15.6947 18.1248 14.1533 17.4675 13.156C16.8101 12.136 15.6428 11.626 13.9655 11.626H11.4495V23.934H13.9655ZM37.5609 18.29C37.5609 17.6553 37.3909 17.1567 37.0509 16.794C36.7336 16.4087 36.2576 16.216 35.6229 16.216C35.0336 16.216 34.5236 16.3747 34.0929 16.692C33.6849 17.0093 33.4243 17.61 33.3109 18.494L27.4969 17.44C27.7236 15.672 28.5509 14.2667 29.9789 13.224C31.4069 12.1813 33.4469 11.66 36.0989 11.66C37.9123 11.66 39.4309 11.9207 40.6549 12.442C41.9016 12.9407 42.8309 13.6773 43.4429 14.652C44.0776 15.6267 44.3949 16.794 44.3949 18.154V23.866C44.3949 24.7727 44.8029 25.226 45.6189 25.226C45.9589 25.226 46.2196 25.1807 46.4009 25.09L46.0609 28.796C45.3129 29.1587 44.3836 29.34 43.2729 29.34C42.2983 29.34 41.4369 29.1927 40.6889 28.898C39.9409 28.5807 39.3516 28.1273 38.9209 27.538C38.4903 26.9487 38.2749 26.178 38.2749 25.226V24.954L38.9549 24.852C38.9549 25.7587 38.6716 26.552 38.1049 27.232C37.5609 27.912 36.8356 28.4333 35.9289 28.796C35.0449 29.1587 34.0589 29.34 32.9709 29.34C31.7923 29.34 30.7836 29.1587 29.9449 28.796C29.1063 28.4333 28.4603 27.912 28.0069 27.232C27.5763 26.552 27.3609 25.7247 27.3609 24.75C27.3609 23.5033 27.7349 22.4833 28.4829 21.69C29.2536 20.8967 30.4096 20.3527 31.9509 20.058L38.1049 18.766L38.0709 21.656L35.5549 22.234C34.9883 22.3473 34.5689 22.54 34.2969 22.812C34.0476 23.0613 33.9229 23.4127 33.9229 23.866C33.9229 24.2967 34.0703 24.6367 34.3649 24.886C34.6596 25.1127 35.0223 25.226 35.4529 25.226C35.7476 25.226 36.0196 25.1807 36.2689 25.09C36.5183 24.9993 36.7336 24.8633 36.9149 24.682C37.1189 24.5007 37.2776 24.274 37.3909 24.002C37.5043 23.73 37.5609 23.4013 37.5609 23.016V18.29ZM54.9004 4.996V22.676C54.9004 23.4013 55.0137 23.9227 55.2404 24.24C55.4671 24.5573 55.8637 24.716 56.4304 24.716C56.7024 24.716 56.9404 24.7047 57.1444 24.682C57.3711 24.6367 57.6091 24.5687 57.8584 24.478L57.4844 28.354C57.0764 28.6487 56.4984 28.8867 55.7504 29.068C55.0251 29.2493 54.2997 29.34 53.5744 29.34C51.6024 29.34 50.1857 28.9093 49.3244 28.048C48.4631 27.164 48.0324 25.702 48.0324 23.662V4.996H54.9004ZM66.2559 4.996V22.676C66.2559 23.4013 66.3692 23.9227 66.5959 24.24C66.8225 24.5573 67.2192 24.716 67.7859 24.716C68.0579 24.716 68.2959 24.7047 68.4999 24.682C68.7265 24.6367 68.9645 24.5687 69.2139 24.478L68.8399 28.354C68.4319 28.6487 67.8539 28.8867 67.1059 29.068C66.3805 29.2493 65.6552 29.34 64.9299 29.34C62.9579 29.34 61.5412 28.9093 60.6799 28.048C59.8185 27.164 59.3879 25.702 59.3879 23.662V4.996H66.2559ZM80.4926 18.29C80.4926 17.6553 80.3226 17.1567 79.9826 16.794C79.6652 16.4087 79.1892 16.216 78.5546 16.216C77.9652 16.216 77.4552 16.3747 77.0246 16.692C76.6166 17.0093 76.3559 17.61 76.2426 18.494L70.4286 17.44C70.6552 15.672 71.4826 14.2667 72.9106 13.224C74.3386 12.1813 76.3786 11.66 79.0306 11.66C80.8439 11.66 82.3626 11.9207 83.5866 12.442C84.8332 12.9407 85.7626 13.6773 86.3746 14.652C87.0092 15.6267 87.3266 16.794 87.3266 18.154V23.866C87.3266 24.7727 87.7346 25.226 88.5506 25.226C88.8906 25.226 89.1512 25.1807 89.3326 25.09L88.9926 28.796C88.2446 29.1587 87.3152 29.34 86.2046 29.34C85.2299 29.34 84.3686 29.1927 83.6206 28.898C82.8726 28.5807 82.2832 28.1273 81.8526 27.538C81.4219 26.9487 81.2066 26.178 81.2066 25.226V24.954L81.8866 24.852C81.8866 25.7587 81.6032 26.552 81.0366 27.232C80.4926 27.912 79.7672 28.4333 78.8606 28.796C77.9766 29.1587 76.9906 29.34 75.9026 29.34C74.7239 29.34 73.7152 29.1587 72.8766 28.796C72.0379 28.4333 71.3919 27.912 70.9386 27.232C70.5079 26.552 70.2926 25.7247 70.2926 24.75C70.2926 23.5033 70.6666 22.4833 71.4146 21.69C72.1852 20.8967 73.3412 20.3527 74.8826 20.058L81.0366 18.766L81.0026 21.656L78.4866 22.234C77.9199 22.3473 77.5006 22.54 77.2286 22.812C76.9792 23.0613 76.8546 23.4127 76.8546 23.866C76.8546 24.2967 77.0019 24.6367 77.2966 24.886C77.5912 25.1127 77.9539 25.226 78.3846 25.226C78.6792 25.226 78.9512 25.1807 79.2006 25.09C79.4499 24.9993 79.6652 24.8633 79.8466 24.682C80.0506 24.5007 80.2092 24.274 80.3226 24.002C80.4359 23.73 80.4926 23.4013 80.4926 23.016V18.29ZM98.512 29.34C96.8347 29.34 95.248 29.0907 93.752 28.592C92.256 28.0933 90.9754 27.3567 89.91 26.382L92.664 22.744C93.276 23.356 94.058 23.8887 95.01 24.342C95.9847 24.7953 97.0047 25.022 98.07 25.022C98.614 25.022 99.0674 24.954 99.43 24.818C99.8154 24.682 100.008 24.444 100.008 24.104C100.008 23.8773 99.906 23.696 99.702 23.56C99.5207 23.4013 99.124 23.2653 98.512 23.152L96.744 22.812C94.432 22.3587 92.7887 21.7013 91.814 20.84C90.862 19.956 90.386 18.8 90.386 17.372C90.386 16.4427 90.6694 15.5473 91.236 14.686C91.8254 13.802 92.7434 13.0767 93.99 12.51C95.2594 11.9433 96.8914 11.66 98.886 11.66C100.631 11.66 102.184 11.898 103.544 12.374C104.927 12.8273 106.026 13.4847 106.842 14.346L104.156 17.882C103.544 17.2927 102.773 16.828 101.844 16.488C100.915 16.148 100.031 15.978 99.192 15.978C98.7614 15.978 98.3987 16.012 98.104 16.08C97.8094 16.148 97.5827 16.25 97.424 16.386C97.288 16.4993 97.22 16.658 97.22 16.862C97.22 17.0887 97.3447 17.2927 97.594 17.474C97.866 17.6327 98.3534 17.78 99.056 17.916L101.776 18.392C103.567 18.7093 104.87 19.2987 105.686 20.16C106.502 21.0213 106.91 22.0753 106.91 23.322C106.91 24.4327 106.615 25.4413 106.026 26.348C105.437 27.2547 104.519 27.98 103.272 28.524C102.048 29.068 100.461 29.34 98.512 29.34Z" fill="white"/>
<path d="M112.13 29V6.56H124.064C126.874 6.58267 128.948 7.104 130.286 8.124C131.646 9.12133 132.326 10.606 132.326 12.578C132.326 13.87 131.929 14.9807 131.136 15.91C130.365 16.8393 129.152 17.4287 127.498 17.678V17.712C129.334 17.9387 130.694 18.528 131.578 19.48C132.462 20.432 132.904 21.6107 132.904 23.016C132.904 24.9653 132.224 26.45 130.864 27.47C129.526 28.49 127.498 29 124.778 29H112.13ZM118.794 24.308H123.18C124.064 24.308 124.721 24.138 125.152 23.798C125.582 23.4353 125.798 22.9253 125.798 22.268C125.798 21.6107 125.582 21.112 125.152 20.772C124.721 20.432 124.064 20.262 123.18 20.262H118.794V24.308ZM118.794 15.468H122.67C124.37 15.468 125.22 14.7993 125.22 13.462C125.22 12.1247 124.37 11.456 122.67 11.456H118.794V15.468ZM135.329 29V12H141.483L141.687 15.978C142.072 14.6407 142.673 13.5867 143.489 12.816C144.328 12.0453 145.416 11.66 146.753 11.66C147.229 11.66 147.614 11.7053 147.909 11.796C148.204 11.864 148.419 11.9547 148.555 12.068L147.943 17.644C147.716 17.5533 147.422 17.474 147.059 17.406C146.696 17.338 146.277 17.304 145.801 17.304C145.121 17.304 144.509 17.4287 143.965 17.678C143.421 17.9273 142.99 18.3013 142.673 18.8C142.356 19.276 142.197 19.888 142.197 20.636V29H135.329ZM158.775 29.34C156.826 29.34 155.137 29 153.709 28.32C152.304 27.6173 151.216 26.6087 150.445 25.294C149.697 23.9793 149.323 22.3813 149.323 20.5C149.323 18.6187 149.709 17.0207 150.479 15.706C151.25 14.3913 152.327 13.394 153.709 12.714C155.092 12.0113 156.69 11.66 158.503 11.66C160.362 11.66 161.937 12.0113 163.229 12.714C164.544 13.394 165.541 14.346 166.221 15.57C166.924 16.794 167.275 18.222 167.275 19.854C167.275 20.2393 167.253 20.6247 167.207 21.01C167.185 21.3953 167.151 21.724 167.105 21.996H153.743V19.004H164.113L160.849 20.262C160.849 18.97 160.668 17.9953 160.305 17.338C159.965 16.658 159.365 16.318 158.503 16.318C157.914 16.318 157.415 16.454 157.007 16.726C156.622 16.998 156.327 17.4513 156.123 18.086C155.942 18.7207 155.851 19.5593 155.851 20.602C155.851 21.6447 155.965 22.472 156.191 23.084C156.441 23.6733 156.781 24.0813 157.211 24.308C157.642 24.5347 158.186 24.648 158.843 24.648C159.569 24.648 160.135 24.5007 160.543 24.206C160.951 23.9113 161.246 23.5033 161.427 22.982L166.935 24.614C166.663 25.6567 166.108 26.5293 165.269 27.232C164.453 27.9347 163.479 28.4673 162.345 28.83C161.212 29.17 160.022 29.34 158.775 29.34ZM172.996 10.504C171.636 10.504 170.65 10.266 170.038 9.79C169.448 9.314 169.154 8.54333 169.154 7.478C169.154 6.39 169.448 5.608 170.038 5.132C170.65 4.656 171.636 4.418 172.996 4.418C174.356 4.418 175.33 4.656 175.92 5.132C176.532 5.608 176.838 6.39 176.838 7.478C176.838 8.54333 176.532 9.314 175.92 9.79C175.33 10.266 174.356 10.504 172.996 10.504ZM176.43 12V29.68C176.43 31.244 176.169 32.5133 175.648 33.488C175.126 34.4627 174.344 35.1767 173.302 35.63C172.259 36.0833 170.944 36.31 169.358 36.31C168.36 36.31 167.465 36.2193 166.672 36.038C165.878 35.8567 165.164 35.596 164.53 35.256L165.414 31.074C165.64 31.2327 165.924 31.3573 166.264 31.448C166.581 31.5387 166.944 31.584 167.352 31.584C168.032 31.584 168.564 31.3913 168.95 31.006C169.358 30.6433 169.562 29.9973 169.562 29.068V12H176.43ZM189.105 18.29C189.105 17.6553 188.935 17.1567 188.595 16.794C188.278 16.4087 187.802 16.216 187.167 16.216C186.578 16.216 186.068 16.3747 185.637 16.692C185.229 17.0093 184.968 17.61 184.855 18.494L179.041 17.44C179.268 15.672 180.095 14.2667 181.523 13.224C182.951 12.1813 184.991 11.66 187.643 11.66C189.456 11.66 190.975 11.9207 192.199 12.442C193.446 12.9407 194.375 13.6773 194.987 14.652C195.622 15.6267 195.939 16.794 195.939 18.154V23.866C195.939 24.7727 196.347 25.226 197.163 25.226C197.503 25.226 197.764 25.1807 197.945 25.09L197.605 28.796C196.857 29.1587 195.928 29.34 194.817 29.34C193.842 29.34 192.981 29.1927 192.233 28.898C191.485 28.5807 190.896 28.1273 190.465 27.538C190.034 26.9487 189.819 26.178 189.819 25.226V24.954L190.499 24.852C190.499 25.7587 190.216 26.552 189.649 27.232C189.105 27.912 188.38 28.4333 187.473 28.796C186.589 29.1587 185.603 29.34 184.515 29.34C183.336 29.34 182.328 29.1587 181.489 28.796C180.65 28.4333 180.004 27.912 179.551 27.232C179.12 26.552 178.905 25.7247 178.905 24.75C178.905 23.5033 179.279 22.4833 180.027 21.69C180.798 20.8967 181.954 20.3527 183.495 20.058L189.649 18.766L189.615 21.656L187.099 22.234C186.532 22.3473 186.113 22.54 185.841 22.812C185.592 23.0613 185.467 23.4127 185.467 23.866C185.467 24.2967 185.614 24.6367 185.909 24.886C186.204 25.1127 186.566 25.226 186.997 25.226C187.292 25.226 187.564 25.1807 187.813 25.09C188.062 24.9993 188.278 24.8633 188.459 24.682C188.663 24.5007 188.822 24.274 188.935 24.002C189.048 23.73 189.105 23.4013 189.105 23.016V18.29Z" fill="#FFBB00"/>
</svg>