<svg width="112" height="78" viewBox="0 0 112 78" fill="none" xmlns="http://www.w3.org/2000/svg">
<path d="M13.4517 9.24C17.1717 9.24 20.0037 10.272 21.9477 12.336C23.8917 14.4 24.8637 17.328 24.8637 21.12C24.8637 24.888 23.8917 27.816 21.9477 29.904C20.0037 31.968 17.1717 33 13.4517 33H2.54366V9.24H13.4517ZM12.5517 27.636C14.3277 27.636 15.5637 27.108 16.2597 26.052C16.9557 24.972 17.3037 23.328 17.3037 21.12C17.3037 18.912 16.9557 17.28 16.2597 16.224C15.5637 15.144 14.3277 14.604 12.5517 14.604H9.88766V27.636H12.5517ZM37.5351 21.66C37.5351 20.988 37.3551 20.46 36.9951 20.076C36.6591 19.668 36.1551 19.464 35.4831 19.464C34.8591 19.464 34.3191 19.632 33.8631 19.968C33.4311 20.304 33.1551 20.94 33.0351 21.876L26.8791 20.76C27.1191 18.888 27.9951 17.4 29.5071 16.296C31.0191 15.192 33.1791 14.64 35.9871 14.64C37.9071 14.64 39.5151 14.916 40.8111 15.468C42.1311 15.996 43.1151 16.776 43.7631 17.808C44.4351 18.84 44.7711 20.076 44.7711 21.516V27.564C44.7711 28.524 45.2031 29.004 46.0671 29.004C46.4271 29.004 46.7031 28.956 46.8951 28.86L46.5351 32.784C45.7431 33.168 44.7591 33.36 43.5831 33.36C42.5511 33.36 41.6391 33.204 40.8471 32.892C40.0551 32.556 39.4311 32.076 38.9751 31.452C38.5191 30.828 38.2911 30.012 38.2911 29.004V28.716L39.0111 28.608C39.0111 29.568 38.7111 30.408 38.1111 31.128C37.5351 31.848 36.7671 32.4 35.8071 32.784C34.8711 33.168 33.8271 33.36 32.6751 33.36C31.4271 33.36 30.3591 33.168 29.4711 32.784C28.5831 32.4 27.8991 31.848 27.4191 31.128C26.9631 30.408 26.7351 29.532 26.7351 28.5C26.7351 27.18 27.1311 26.1 27.9231 25.26C28.7391 24.42 29.9631 23.844 31.5951 23.532L38.1111 22.164L38.0751 25.224L35.4111 25.836C34.8111 25.956 34.3671 26.16 34.0791 26.448C33.8151 26.712 33.6831 27.084 33.6831 27.564C33.6831 28.02 33.8391 28.38 34.1511 28.644C34.4631 28.884 34.8471 29.004 35.3031 29.004C35.6151 29.004 35.9031 28.956 36.1671 28.86C36.4311 28.764 36.6591 28.62 36.8511 28.428C37.0671 28.236 37.2351 27.996 37.3551 27.708C37.4751 27.42 37.5351 27.072 37.5351 26.664V21.66ZM55.8945 7.584V26.304C55.8945 27.072 56.0145 27.624 56.2545 27.96C56.4945 28.296 56.9145 28.464 57.5145 28.464C57.8025 28.464 58.0545 28.452 58.2705 28.428C58.5105 28.38 58.7625 28.308 59.0265 28.212L58.6305 32.316C58.1985 32.628 57.5865 32.88 56.7945 33.072C56.0265 33.264 55.2585 33.36 54.4905 33.36C52.4025 33.36 50.9025 32.904 49.9905 31.992C49.0785 31.056 48.6225 29.508 48.6225 27.348V7.584H55.8945ZM67.918 7.584V26.304C67.918 27.072 68.038 27.624 68.278 27.96C68.518 28.296 68.938 28.464 69.538 28.464C69.826 28.464 70.078 28.452 70.294 28.428C70.534 28.38 70.786 28.308 71.05 28.212L70.654 32.316C70.222 32.628 69.61 32.88 68.818 33.072C68.05 33.264 67.282 33.36 66.514 33.36C64.426 33.36 62.926 32.904 62.014 31.992C61.102 31.056 60.646 29.508 60.646 27.348V7.584H67.918ZM82.9921 21.66C82.9921 20.988 82.8121 20.46 82.4521 20.076C82.1161 19.668 81.6121 19.464 80.9401 19.464C80.3161 19.464 79.7761 19.632 79.3201 19.968C78.8881 20.304 78.6121 20.94 78.4921 21.876L72.3361 20.76C72.5761 18.888 73.4521 17.4 74.9641 16.296C76.4761 15.192 78.6361 14.64 81.4441 14.64C83.3641 14.64 84.9721 14.916 86.2681 15.468C87.5881 15.996 88.5721 16.776 89.2201 17.808C89.8921 18.84 90.2281 20.076 90.2281 21.516V27.564C90.2281 28.524 90.6601 29.004 91.5241 29.004C91.8841 29.004 92.1601 28.956 92.3521 28.86L91.9921 32.784C91.2001 33.168 90.2161 33.36 89.0401 33.36C88.0081 33.36 87.0961 33.204 86.3041 32.892C85.5121 32.556 84.8881 32.076 84.4321 31.452C83.9761 30.828 83.7481 30.012 83.7481 29.004V28.716L84.4681 28.608C84.4681 29.568 84.1681 30.408 83.5681 31.128C82.9921 31.848 82.2241 32.4 81.2641 32.784C80.3281 33.168 79.2841 33.36 78.1321 33.36C76.8841 33.36 75.8161 33.168 74.9281 32.784C74.0401 32.4 73.3561 31.848 72.8761 31.128C72.4201 30.408 72.1921 29.532 72.1921 28.5C72.1921 27.18 72.5881 26.1 73.3801 25.26C74.1961 24.42 75.4201 23.844 77.0521 23.532L83.5681 22.164L83.5321 25.224L80.8681 25.836C80.2681 25.956 79.8241 26.16 79.5361 26.448C79.2721 26.712 79.1401 27.084 79.1401 27.564C79.1401 28.02 79.2961 28.38 79.6081 28.644C79.9201 28.884 80.3041 29.004 80.7601 29.004C81.0721 29.004 81.3601 28.956 81.6241 28.86C81.8881 28.764 82.1161 28.62 82.3081 28.428C82.5241 28.236 82.6921 27.996 82.8121 27.708C82.9321 27.42 82.9921 27.072 82.9921 26.664V21.66ZM102.072 33.36C100.296 33.36 98.6156 33.096 97.0316 32.568C95.4476 32.04 94.0916 31.26 92.9636 30.228L95.8796 26.376C96.5276 27.024 97.3556 27.588 98.3636 28.068C99.3956 28.548 100.476 28.788 101.604 28.788C102.18 28.788 102.66 28.716 103.044 28.572C103.452 28.428 103.656 28.176 103.656 27.816C103.656 27.576 103.548 27.384 103.332 27.24C103.14 27.072 102.72 26.928 102.072 26.808L100.2 26.448C97.7516 25.968 96.0116 25.272 94.9796 24.36C93.9716 23.424 93.4676 22.2 93.4676 20.688C93.4676 19.704 93.7676 18.756 94.3676 17.844C94.9916 16.908 95.9636 16.14 97.2836 15.54C98.6276 14.94 100.356 14.64 102.468 14.64C104.316 14.64 105.96 14.892 107.4 15.396C108.864 15.876 110.028 16.572 110.892 17.484L108.048 21.228C107.4 20.604 106.584 20.112 105.6 19.752C104.616 19.392 103.68 19.212 102.792 19.212C102.336 19.212 101.952 19.248 101.64 19.32C101.328 19.392 101.088 19.5 100.92 19.644C100.776 19.764 100.704 19.932 100.704 20.148C100.704 20.388 100.836 20.604 101.1 20.796C101.388 20.964 101.904 21.12 102.648 21.264L105.528 21.768C107.424 22.104 108.804 22.728 109.668 23.64C110.532 24.552 110.964 25.668 110.964 26.988C110.964 28.164 110.652 29.232 110.028 30.192C109.404 31.152 108.432 31.92 107.112 32.496C105.816 33.072 104.136 33.36 102.072 33.36Z" fill="white"/>
<path d="M2.77782 68V40.28H17.5198C20.9918 40.308 23.5538 40.952 25.2058 42.212C26.8858 43.444 27.7258 45.278 27.7258 47.714C27.7258 49.31 27.2358 50.682 26.2558 51.83C25.3038 52.978 23.8058 53.706 21.7618 54.014V54.056C24.0298 54.336 25.7098 55.064 26.8018 56.24C27.8938 57.416 28.4398 58.872 28.4398 60.608C28.4398 63.016 27.5998 64.85 25.9198 66.11C24.2678 67.37 21.7618 68 18.4018 68H2.77782ZM11.0098 62.204H16.4278C17.5198 62.204 18.3318 61.994 18.8638 61.574C19.3958 61.126 19.6618 60.496 19.6618 59.684C19.6618 58.872 19.3958 58.256 18.8638 57.836C18.3318 57.416 17.5198 57.206 16.4278 57.206H11.0098V62.204ZM11.0098 51.284H15.7978C17.8978 51.284 18.9478 50.458 18.9478 48.806C18.9478 47.154 17.8978 46.328 15.7978 46.328H11.0098V51.284ZM31.4359 68V47H39.0379L39.2899 51.914C39.7659 50.262 40.5079 48.96 41.5159 48.008C42.5519 47.056 43.8959 46.58 45.5479 46.58C46.1359 46.58 46.6119 46.636 46.9759 46.748C47.3399 46.832 47.6059 46.944 47.7739 47.084L47.0179 53.972C46.7379 53.86 46.3739 53.762 45.9259 53.678C45.4779 53.594 44.9599 53.552 44.3719 53.552C43.5319 53.552 42.7759 53.706 42.1039 54.014C41.4319 54.322 40.8999 54.784 40.5079 55.4C40.1159 55.988 39.9199 56.744 39.9199 57.668V68H31.4359ZM60.3989 68.42C57.9909 68.42 55.9049 68 54.1409 67.16C52.4049 66.292 51.0609 65.046 50.1089 63.422C49.1849 61.798 48.7229 59.824 48.7229 57.5C48.7229 55.176 49.1989 53.202 50.1509 51.578C51.1029 49.954 52.4329 48.722 54.1409 47.882C55.8489 47.014 57.8229 46.58 60.0629 46.58C62.3589 46.58 64.3049 47.014 65.9009 47.882C67.5249 48.722 68.7569 49.898 69.5969 51.41C70.4649 52.922 70.8989 54.686 70.8989 56.702C70.8989 57.178 70.8709 57.654 70.8149 58.13C70.7869 58.606 70.7449 59.012 70.6889 59.348H54.1829V55.652H66.9929L62.9609 57.206C62.9609 55.61 62.7369 54.406 62.2889 53.594C61.8689 52.754 61.1269 52.334 60.0629 52.334C59.3349 52.334 58.7189 52.502 58.2149 52.838C57.7389 53.174 57.3749 53.734 57.1229 54.518C56.8989 55.302 56.7869 56.338 56.7869 57.626C56.7869 58.914 56.9269 59.936 57.2069 60.692C57.5149 61.42 57.9349 61.924 58.4669 62.204C58.9989 62.484 59.6709 62.624 60.4829 62.624C61.3789 62.624 62.0789 62.442 62.5829 62.078C63.0869 61.714 63.4509 61.21 63.6749 60.566L70.4789 62.582C70.1429 63.87 69.4569 64.948 68.4209 65.816C67.4129 66.684 66.2089 67.342 64.8089 67.79C63.4089 68.21 61.9389 68.42 60.3989 68.42ZM77.965 45.152C76.285 45.152 75.067 44.858 74.311 44.27C73.583 43.682 73.219 42.73 73.219 41.414C73.219 40.07 73.583 39.104 74.311 38.516C75.067 37.928 76.285 37.634 77.965 37.634C79.645 37.634 80.849 37.928 81.577 38.516C82.333 39.104 82.711 40.07 82.711 41.414C82.711 42.73 82.333 43.682 81.577 44.27C80.849 44.858 79.645 45.152 77.965 45.152ZM82.207 47V68.84C82.207 70.772 81.885 72.34 81.241 73.544C80.597 74.748 79.631 75.63 78.343 76.19C77.055 76.75 75.431 77.03 73.471 77.03C72.239 77.03 71.133 76.918 70.153 76.694C69.173 76.47 68.291 76.148 67.507 75.728L68.599 70.562C68.879 70.758 69.229 70.912 69.649 71.024C70.041 71.136 70.489 71.192 70.993 71.192C71.833 71.192 72.491 70.954 72.967 70.478C73.471 70.03 73.723 69.232 73.723 68.084V47H82.207ZM97.8648 54.77C97.8648 53.986 97.6548 53.37 97.2348 52.922C96.8428 52.446 96.2548 52.208 95.4708 52.208C94.7428 52.208 94.1128 52.404 93.5808 52.796C93.0768 53.188 92.7548 53.93 92.6148 55.022L85.4328 53.72C85.7128 51.536 86.7348 49.8 88.4988 48.512C90.2628 47.224 92.7828 46.58 96.0588 46.58C98.2988 46.58 100.175 46.902 101.687 47.546C103.227 48.162 104.375 49.072 105.131 50.276C105.915 51.48 106.307 52.922 106.307 54.602V61.658C106.307 62.778 106.811 63.338 107.819 63.338C108.239 63.338 108.561 63.282 108.785 63.17L108.365 67.748C107.441 68.196 106.293 68.42 104.921 68.42C103.717 68.42 102.653 68.238 101.729 67.874C100.805 67.482 100.077 66.922 99.5448 66.194C99.0128 65.466 98.7468 64.514 98.7468 63.338V63.002L99.5868 62.876C99.5868 63.996 99.2368 64.976 98.5368 65.816C97.8648 66.656 96.9688 67.3 95.8488 67.748C94.7568 68.196 93.5388 68.42 92.1948 68.42C90.7388 68.42 89.4928 68.196 88.4568 67.748C87.4208 67.3 86.6228 66.656 86.0628 65.816C85.5308 64.976 85.2648 63.954 85.2648 62.75C85.2648 61.21 85.7268 59.95 86.6508 58.97C87.6028 57.99 89.0308 57.318 90.9348 56.954L98.5368 55.358L98.4948 58.928L95.3868 59.642C94.6868 59.782 94.1688 60.02 93.8328 60.356C93.5248 60.664 93.3708 61.098 93.3708 61.658C93.3708 62.19 93.5528 62.61 93.9168 62.918C94.2808 63.198 94.7288 63.338 95.2608 63.338C95.6248 63.338 95.9608 63.282 96.2688 63.17C96.5768 63.058 96.8428 62.89 97.0668 62.666C97.3188 62.442 97.5148 62.162 97.6548 61.826C97.7948 61.49 97.8648 61.084 97.8648 60.608V54.77Z" fill="#FFBB00"/>
</svg>
